<svg width="20" height="20" viewBox="0 0 20 20" fill="none" xmlns="http://www.w3.org/2000/svg">
<path fill-rule="evenodd" clip-rule="evenodd" d="M0.75 10C0.75 16.937 3.063 19.25 10 19.25C16.937 19.25 19.25 16.937 19.25 10C19.25 3.063 16.937 0.75 10 0.75C3.063 0.75 0.75 3.063 0.75 10Z" stroke="#46A358" stroke-width="1.5" stroke-linecap="round" stroke-linejoin="round"/>
<path fill-rule="evenodd" clip-rule="evenodd" d="M8.59866 6.78419C8.59866 7.75719 7.81066 8.54519 6.83766 8.54519C5.86566 8.54519 5.07666 7.75719 5.07666 6.78419C5.07666 5.81119 5.86566 5.02319 6.83766 5.02319C7.81066 5.02319 8.59866 5.81119 8.59866 6.78419Z" stroke="#46A358" stroke-width="1.5" stroke-linecap="round" stroke-linejoin="round"/>
<path d="M19.1203 12.6664C18.2393 11.7604 16.9933 9.92944 14.7043 9.92944C12.4153 9.92944 12.3653 13.9674 10.0293 13.9674C7.69231 13.9674 6.75131 12.5964 5.22831 13.3124C3.70631 14.0274 2.46631 16.8734 2.46631 16.8734" stroke="#46A358" stroke-width="1.5" stroke-linecap="round" stroke-linejoin="round"/>
</svg>
