<svg width="18" height="15" viewBox="0 0 18 15" fill="none" xmlns="http://www.w3.org/2000/svg">
<g id="Hide">
<path id="Fill 1" fill-rule="evenodd" clip-rule="evenodd" d="M7.13363 10.0145C6.97363 10.0145 6.81363 9.95366 6.69196 9.83116C6.07696 9.21699 5.73779 8.40032 5.73779 7.53199C5.73779 5.73199 7.20113 4.26782 8.99946 4.26782C9.86446 4.26782 10.7045 4.61699 11.3036 5.22616C11.5453 5.47282 11.5428 5.86782 11.2961 6.10949C11.0503 6.35282 10.6553 6.34866 10.4128 6.10366C10.047 5.73116 9.53196 5.51782 8.99946 5.51782C7.89029 5.51782 6.98779 6.42116 6.98779 7.53199C6.98779 8.06616 7.19696 8.56949 7.57529 8.94782C7.81946 9.19199 7.81946 9.58699 7.57613 9.83116C7.45363 9.95366 7.29363 10.0145 7.13363 10.0145Z" fill="#727272"/>
<path id="Fill 3" fill-rule="evenodd" clip-rule="evenodd" d="M9.47249 10.7428C9.17665 10.7428 8.91332 10.5312 8.85832 10.2295C8.79665 9.89033 9.02165 9.5645 9.36165 9.50283C10.1783 9.3545 10.825 8.70616 10.9717 7.88866C11.0333 7.5495 11.3583 7.32616 11.6975 7.3845C12.0375 7.44533 12.2633 7.77033 12.2025 8.11033C11.9633 9.43783 10.9117 10.4912 9.58499 10.7328C9.54749 10.7395 9.50915 10.7428 9.47249 10.7428Z" fill="#727272"/>
<g id="Group 7">
<mask id="mask0_61278_216" style="mask-type:luminance" maskUnits="userSpaceOnUse" x="0" y="0" width="15" height="13">
<path id="Clip 6" fill-rule="evenodd" clip-rule="evenodd" d="M0.666504 0.85376H14.0717V12.6022H0.666504V0.85376Z" fill="white"/>
</mask>
<g mask="url(#mask0_61278_216)">
<path id="Fill 5" fill-rule="evenodd" clip-rule="evenodd" d="M4.54525 12.6022C4.41025 12.6022 4.27442 12.558 4.15942 12.4689C2.75025 11.3622 1.55942 9.7397 0.717754 7.77803C0.649421 7.6197 0.649421 7.44137 0.717754 7.28387C1.56859 5.31387 2.76692 3.68303 4.18359 2.56887C7.07192 0.283032 10.9169 0.275532 13.8344 2.58553C14.1053 2.7997 14.1511 3.19303 13.9369 3.46387C13.7219 3.73303 13.3303 3.78053 13.0586 3.56553C10.5869 1.60887 7.40275 1.61553 4.95775 3.55053C3.76109 4.4922 2.73359 5.86387 1.97525 7.5322C2.72609 9.19053 3.74442 10.5539 4.93192 11.4855C5.20359 11.6989 5.25025 12.0922 5.03692 12.363C4.91359 12.5197 4.73025 12.6022 4.54525 12.6022Z" fill="#727272"/>
</g>
</g>
<g id="Group 10">
<mask id="mask1_61278_216" style="mask-type:luminance" maskUnits="userSpaceOnUse" x="6" y="4" width="12" height="11">
<path id="Clip 9" fill-rule="evenodd" clip-rule="evenodd" d="M6.26416 4.28442H17.3329V14.2413H6.26416V4.28442Z" fill="white"/>
</mask>
<g mask="url(#mask1_61278_216)">
<path id="Fill 8" fill-rule="evenodd" clip-rule="evenodd" d="M8.99969 14.2413C8.21885 14.2413 7.44219 14.1146 6.69219 13.8654C6.36469 13.7563 6.18719 13.4021 6.29635 13.0746C6.40552 12.7463 6.75802 12.5721 7.08719 12.6788C7.70969 12.8863 8.35302 12.9913 8.99969 12.9913C11.8564 12.9913 14.4672 10.9563 16.0247 7.53043C15.6447 6.69793 15.2022 5.94376 14.7072 5.28543C14.4997 5.00959 14.5547 4.61709 14.8305 4.40959C15.1055 4.20209 15.498 4.25876 15.7055 4.53376C16.3089 5.33459 16.8389 6.26043 17.2814 7.28209C17.3505 7.44043 17.3505 7.62043 17.2814 7.77793C15.5347 11.8254 12.4389 14.2413 8.99969 14.2413Z" fill="#727272"/>
</g>
</g>
<g id="Group 13">
<mask id="mask2_61278_216" style="mask-type:luminance" maskUnits="userSpaceOnUse" x="1" y="0" width="16" height="15">
<path id="Clip 12" fill-rule="evenodd" clip-rule="evenodd" d="M1.80273 0.33374H16.1973V14.7279H1.80273V0.33374Z" fill="white"/>
</mask>
<g mask="url(#mask2_61278_216)">
<path id="Fill 11" fill-rule="evenodd" clip-rule="evenodd" d="M2.42753 14.7278C2.26753 14.7278 2.10753 14.667 1.98586 14.5445C1.74169 14.3003 1.74169 13.9053 1.98586 13.6611L15.1309 0.516133C15.375 0.271966 15.77 0.271966 16.0142 0.516133C16.2584 0.7603 16.2584 1.15613 16.0142 1.4003L2.86919 14.5445C2.74753 14.667 2.58753 14.7278 2.42753 14.7278Z" fill="#727272"/>
</g>
</g>
</g>
</svg>
